<svg xmlns="http://www.w3.org/2000/svg" xmlns:xlink="http://www.w3.org/1999/xlink" id="svg" version="1.1" width="400" height="400" viewBox="0, 0, 400,400"><g id="svgg"><path id="path0" d="M125.185 51.843 C 112.289 52.085,111.768 52.165,111.065 54.004 C 110.022 56.733,109.873 73.751,109.878 190.000 C 109.884 329.511,109.791 325.472,113.016 326.651 C 115.087 327.407,129.214 327.953,135.615 327.523 L 141.236 327.146 142.655 325.624 C 146.725 321.261,144.047 319.845,130.741 319.322 C 119.826 318.894,119.402 318.643,118.918 312.332 C 118.475 306.550,118.713 67.333,119.165 64.146 C 119.641 60.785,119.331 61.026,123.619 60.683 C 128.831 60.265,252.417 59.893,266.564 60.253 C 280.872 60.616,279.865 60.227,280.384 65.589 C 280.830 70.207,280.818 113.444,280.367 124.259 C 279.763 138.746,279.093 139.543,273.971 131.858 C 251.118 97.566,208.873 80.286,171.220 89.826 C 158.943 92.937,159.927 99.870,172.382 98.011 C 180.754 96.761,182.307 97.419,179.967 101.222 C 177.084 105.908,178.715 108.169,184.589 107.627 C 194.523 106.709,195.024 106.888,194.618 111.198 C 194.174 115.906,196.353 117.243,202.720 116.172 C 206.933 115.464,210.212 115.373,211.662 115.924 L 212.631 116.293 211.315 118.645 C 209.427 122.023,209.589 123.566,211.973 124.899 C 212.475 125.180,214.781 125.384,218.103 125.441 C 225.067 125.561,225.185 125.631,225.185 129.581 C 225.185 133.804,225.140 133.778,233.122 134.114 C 241.943 134.484,242.724 134.967,241.438 139.260 C 240.312 143.015,242.513 144.285,249.935 144.166 C 256.921 144.053,256.883 144.037,256.753 147.168 C 256.538 152.325,257.381 152.787,266.423 152.474 C 275.685 152.152,275.896 152.267,277.563 158.519 C 278.080 160.454,278.862 163.287,279.302 164.815 C 280.857 170.210,280.294 180.595,278.361 182.199 C 277.670 182.772,277.164 182.506,272.407 179.064 C 270.370 177.591,267.537 175.680,266.111 174.818 C 264.685 173.956,262.352 172.293,260.926 171.122 C 251.639 163.494,232.805 155.606,220.277 154.097 C 212.159 153.119,194.076 153.302,183.381 154.470 C 161.793 156.828,126.984 175.957,129.974 183.821 C 130.952 186.393,135.518 185.983,138.961 183.014 C 142.789 179.712,146.726 177.187,150.273 175.759 C 155.398 173.696,156.400 174.308,153.355 177.640 C 150.065 181.240,149.250 183.761,150.757 185.677 C 152.410 187.779,154.535 187.362,159.858 183.892 C 163.877 181.272,167.610 179.392,169.469 179.051 C 170.270 178.904,171.827 178.389,172.927 177.906 C 174.028 177.423,175.028 177.136,175.150 177.268 C 175.271 177.401,175.138 177.591,174.855 177.692 C 172.589 178.495,169.506 182.949,169.506 185.419 C 169.506 189.873,173.547 190.404,178.714 186.629 C 182.689 183.724,192.381 179.226,193.361 179.832 C 193.950 180.196,193.752 180.607,192.091 182.460 C 186.007 189.247,190.513 193.003,198.704 187.972 C 208.386 182.025,211.966 181.618,210.185 186.667 C 208.301 192.006,212.253 193.916,218.310 190.593 C 219.647 189.859,221.782 188.690,223.056 187.995 C 228.659 184.933,230.419 184.981,229.472 188.169 C 228.650 190.939,228.732 191.964,229.865 193.098 C 231.605 194.838,233.196 194.521,239.907 191.099 C 248.504 186.714,250.170 186.454,249.257 189.638 C 247.202 196.801,252.981 197.684,262.937 191.728 C 268.592 188.344,269.360 188.464,274.790 193.575 C 279.400 197.914,280.176 199.547,280.130 204.801 C 280.058 212.965,279.487 213.207,268.201 209.845 C 249.903 204.395,225.888 202.202,214.815 204.970 C 196.951 209.435,189.838 211.918,178.220 217.742 C 169.795 221.965,163.612 225.924,158.519 230.356 C 157.194 231.508,154.487 233.746,152.503 235.328 C 149.029 238.098,145.002 242.328,141.966 246.397 C 138.276 251.342,134.987 255.572,133.143 257.747 C 123.868 268.682,120.447 280.370,126.523 280.370 C 128.770 280.370,130.086 278.792,135.584 269.498 C 139.323 263.179,146.720 254.347,147.745 254.979 C 148.279 255.310,148.034 256.253,145.912 262.037 C 143.161 269.535,143.178 271.454,146.007 272.530 C 148.652 273.537,150.901 271.953,153.296 267.395 C 157.508 259.380,164.663 250.741,167.090 250.741 C 168.087 250.741,167.963 251.830,166.477 256.111 C 164.375 262.168,164.860 264.815,168.071 264.815 C 169.891 264.815,171.433 263.255,175.575 257.222 C 185.683 242.502,190.148 239.471,186.821 249.589 C 185.314 254.172,185.272 254.935,186.465 256.128 C 189.300 258.964,192.814 256.239,198.907 246.478 C 201.509 242.309,206.196 237.189,207.125 237.499 C 207.384 237.585,207.537 239.476,207.559 242.862 C 207.622 252.676,211.235 253.180,216.548 244.116 C 222.695 233.630,229.438 227.260,228.160 233.148 C 227.306 237.079,227.547 239.826,228.860 241.140 C 231.202 243.481,232.379 242.695,238.333 234.815 C 248.101 221.888,248.896 221.310,248.121 227.702 C 247.607 231.946,247.987 233.191,250.106 234.197 C 253.420 235.770,256.367 233.064,262.963 222.394 C 265.165 218.831,267.208 218.423,273.042 220.377 C 279.977 222.701,280.185 223.062,280.185 232.794 C 280.185 242.831,280.610 242.423,268.664 243.858 C 250.854 245.996,244.610 247.746,224.815 256.146 C 197.376 267.789,171.097 294.495,159.188 322.836 C 153.417 336.571,153.151 337.390,150.580 349.298 C 146.584 367.814,146.379 380.331,150.052 381.622 C 153.615 382.875,155.303 380.062,155.946 371.800 C 157.073 357.308,160.221 344.036,162.992 342.095 C 164.490 341.046,164.612 341.699,164.822 351.960 C 165.056 363.377,165.396 364.444,168.804 364.444 C 171.513 364.444,172.419 362.274,173.904 352.222 C 175.013 344.718,176.335 338.203,177.572 334.147 C 178.623 330.700,181.061 323.711,181.402 323.169 C 181.906 322.367,182.180 325.972,182.203 333.704 C 182.233 343.873,183.045 346.667,185.972 346.667 C 188.938 346.667,190.305 344.248,191.101 337.593 C 191.460 334.595,192.156 330.649,193.910 321.667 C 194.640 317.932,196.161 312.830,197.085 311.019 C 198.599 308.050,199.156 309.591,199.643 318.092 C 200.202 327.861,200.596 329.212,203.063 329.828 C 205.963 330.552,207.165 328.658,208.359 321.486 C 212.726 295.268,215.458 290.022,217.043 304.815 C 217.659 310.559,218.771 312.593,221.296 312.593 C 223.608 312.593,224.796 310.799,225.733 305.894 C 226.061 304.180,226.476 302.111,226.657 301.296 C 226.838 300.481,227.256 297.815,227.588 295.370 C 228.620 287.748,230.767 281.109,232.293 280.815 C 232.981 280.683,233.100 281.097,233.873 286.293 C 234.764 292.281,236.080 294.406,238.602 293.932 C 241.459 293.397,242.330 291.567,243.916 282.778 C 244.431 279.926,245.439 275.009,246.157 271.852 C 246.875 268.694,247.619 264.621,247.810 262.799 C 248.160 259.457,248.829 257.778,249.810 257.778 C 250.805 257.778,251.018 259.059,251.195 266.125 C 251.403 274.412,251.736 275.572,254.231 276.706 C 258.291 278.549,259.491 276.331,261.449 263.368 C 262.976 253.255,263.691 252.538,272.500 252.280 C 281.110 252.028,280.526 250.259,280.669 277.037 C 280.824 305.989,280.431 316.404,279.132 317.703 C 277.974 318.861,272.166 319.188,252.004 319.232 C 245.263 319.247,236.726 319.369,233.032 319.503 L 226.317 319.746 225.380 321.097 C 224.159 322.859,224.139 324.789,225.330 326.173 C 226.685 327.749,247.559 328.274,274.706 327.415 C 286.816 327.032,287.379 326.912,288.438 324.512 C 290.064 320.827,290.181 59.926,288.559 54.761 C 287.745 52.171,288.280 52.233,263.244 51.846 C 239.179 51.475,144.882 51.473,125.185 51.843 " stroke="none" fill="#c4b494" fill-rule="evenodd"/></g></svg>